<svg width="24" height="24" viewBox="0 0 24 24" fill="none" xmlns="http://www.w3.org/2000/svg">
<path d="M19 21H5C4.4 21 4 20.6 4 20V9H20V20C20 20.5 19.6 21 19 21Z" stroke="#2E5599" stroke-miterlimit="10"/>
<path d="M20.5996 5.7L17.2996 3.2C17.0996 3 16.8996 3 16.6996 3H7.39961C7.19961 3 6.99961 3.1 6.79961 3.2L3.49961 5.7C3.19961 5.9 3.09961 6.2 3.09961 6.5V8.5C3.09961 8.8 3.29961 9 3.59961 9H20.5996C20.8996 9 21.0996 8.8 21.0996 8.5V6.5C20.9996 6.1 20.8996 5.8 20.5996 5.7Z" stroke="#2E5599" stroke-miterlimit="10"/>
<path d="M3 6H21" stroke="#2E5599" stroke-miterlimit="10"/>
<path d="M16 13.5H8C7.7 13.5 7.5 13.3 7.5 13V12C7.5 11.7 7.7 11.5 8 11.5H16C16.3 11.5 16.5 11.7 16.5 12V13C16.5 13.2 16.3 13.5 16 13.5Z" stroke="#2E5599" stroke-miterlimit="10"/>
</svg>