<svg width="24" height="24" viewBox="0 0 24 24" fill="none" xmlns="http://www.w3.org/2000/svg">
<path fill-rule="evenodd" clip-rule="evenodd" d="M3.64645 2.64645C3.84171 2.45118 4.15829 2.45118 4.35355 2.64645L12.5 10.7929L20.6464 2.64645C20.8417 2.45118 21.1583 2.45118 21.3536 2.64645C21.5488 2.84171 21.5488 3.15829 21.3536 3.35355L13.2071 11.5L21.3536 19.6464C21.5488 19.8417 21.5488 20.1583 21.3536 20.3536C21.1583 20.5488 20.8417 20.5488 20.6464 20.3536L12.5 12.2071L4.35355 20.3536C4.15829 20.5488 3.84171 20.5488 3.64645 20.3536C3.45118 20.1583 3.45118 19.8417 3.64645 19.6464L11.7929 11.5L3.64645 3.35355C3.45118 3.15829 3.45118 2.84171 3.64645 2.64645Z" fill="#2E5599"/>
</svg>
