<svg width="25" height="24" viewBox="0 0 25 24" fill="none" xmlns="http://www.w3.org/2000/svg">
<path fill-rule="evenodd" clip-rule="evenodd" d="M1.92145 7.67145C2.20284 7.39006 2.58638 7.25 3 7.25H19C19.4136 7.25 19.7972 7.39006 20.0786 7.67145C20.3599 7.95284 20.5 8.33638 20.5 8.75V18.75C20.5 19.1636 20.3599 19.5472 20.0786 19.8286C19.7972 20.1099 19.4136 20.25 19 20.25H3C2.58638 20.25 2.20284 20.1099 1.92145 19.8286C1.64006 19.5472 1.5 19.1636 1.5 18.75V8.75C1.5 8.33638 1.64006 7.95284 1.92145 7.67145ZM2.5 18.75V8.83965L10.8965 15.3811L19.5 8.83078V18.75C19.5 18.9364 19.4401 19.0528 19.3714 19.1214C19.3028 19.1901 19.1864 19.25 19 19.25H3C2.81362 19.25 2.69716 19.1901 2.62855 19.1214C2.55994 19.0528 2.5 18.9364 2.5 18.75ZM18.612 8.25L10.9036 14.119L3.37027 8.25H18.612Z" fill="#2E5599"/>
<path d="M23 7.75C23 9.95914 21.2091 11.75 19 11.75C16.7909 11.75 15 9.95914 15 7.75C15 5.54086 16.7909 3.75 19 3.75C21.2091 3.75 23 5.54086 23 7.75Z" fill="#2E5599"/>
</svg>