<svg width="22" height="22" viewBox="0 0 22 22" fill="none" xmlns="http://www.w3.org/2000/svg">
<path d="M9.98145 6.68855L9.64645 6.35355L10.3536 5.64645L10.6886 5.98145L9.98145 6.68855Z" fill="#2E5599"/>
<path d="M11.3214 8.02855L10.6514 7.35855L11.3586 6.65145L12.0286 7.32145L11.3214 8.02855Z" fill="#2E5599"/>
<path d="M12.6614 9.36855L11.9914 8.69855L12.6986 7.99145L13.3686 8.66145L12.6614 9.36855Z" fill="#2E5599"/>
<path d="M14.0014 10.7086L13.3314 10.0386L14.0386 9.33145L14.7086 10.0014L14.0014 10.7086Z" fill="#2E5599"/>
<path d="M15.3414 12.0486L14.6714 11.3786L15.3786 10.6714L16.0486 11.3414L15.3414 12.0486Z" fill="#2E5599"/>
<path d="M16.3464 13.0536L16.0114 12.7186L16.7186 12.0114L17.0536 12.3464L16.3464 13.0536Z" fill="#2E5599"/>
<path fill-rule="evenodd" clip-rule="evenodd" d="M14.3536 0.946447C13.7583 0.351184 12.8417 0.351184 12.2464 0.946447L0.946447 12.2464C0.351184 12.8417 0.351184 13.7583 0.946447 14.3536L3.8 17.2071L5.55355 15.4536C5.95829 15.0488 6.54171 15.0488 6.94645 15.4536C7.35118 15.8583 7.35118 16.4417 6.94645 16.8464L5.19289 18.6L8.04645 21.4536C8.64171 22.0488 9.55829 22.0488 10.1536 21.4536L21.4536 10.1536C22.0488 9.55829 22.0488 8.64171 21.4536 8.04645L18.6 5.19289L16.8464 6.94645C16.4417 7.35118 15.8583 7.35118 15.4536 6.94645C15.0488 6.54171 15.0488 5.95829 15.4536 5.55355L17.2071 3.8L14.3536 0.946447ZM12.9536 1.65355C13.1583 1.44882 13.4417 1.44882 13.6464 1.65355L15.7929 3.8L14.7464 4.84645C13.9512 5.64171 13.9512 6.85829 14.7464 7.65355C15.5417 8.44882 16.7583 8.44882 17.5536 7.65355L18.6 6.60711L20.7464 8.75355C20.9512 8.95829 20.9512 9.24171 20.7464 9.44645L9.44645 20.7464C9.24171 20.9512 8.95829 20.9512 8.75355 20.7464L6.60711 18.6L7.65355 17.5536C8.44882 16.7583 8.44882 15.5417 7.65355 14.7464C6.85829 13.9512 5.64171 13.9512 4.84645 14.7464L3.8 15.7929L1.65355 13.6464C1.44882 13.4417 1.44882 13.1583 1.65355 12.9536L8.94693 5.66018L9.00002 5.7L9.27878 5.32833L12.9536 1.65355Z" fill="#2E5599"/>
</svg>
