<svg width="24" height="24" viewBox="0 0 24 24" fill="none" xmlns="http://www.w3.org/2000/svg">
<path d="M10.3965 15.8672L9.0284 19.626" stroke="#7D95BD" stroke-linecap="round" stroke-linejoin="round"/>
<path fill-rule="evenodd" clip-rule="evenodd" d="M15.5094 6.4794C15.8161 6.59101 15.9742 6.9301 15.8626 7.23677L14.4307 11.1708C14.3462 11.4029 14.3169 11.6514 14.3452 11.8968L14.758 15.4835C14.7685 15.5747 14.7576 15.667 14.7262 15.7532L14.5564 16.2198C14.4448 16.5265 14.1057 16.6846 13.799 16.573L7.18071 14.1641C6.87405 14.0525 6.71593 13.7134 6.82754 13.4067L6.99737 12.9401C7.02874 12.8539 7.07976 12.7762 7.14637 12.7131L9.7681 10.2309C9.94745 10.0611 10.0848 9.85183 10.1693 9.61974L11.6011 5.68574C11.7127 5.37907 12.0518 5.22095 12.3585 5.33257L15.5094 6.4794ZM16.8022 7.57879C17.1028 6.75315 16.6771 5.84021 15.8514 5.5397L12.7005 4.39288C11.8749 4.09237 10.9619 4.51807 10.6614 5.34372L9.22958 9.27772C9.1982 9.36392 9.14719 9.44164 9.08057 9.50471L6.45884 11.987C6.2795 12.1568 6.14215 12.366 6.05768 12.5981L5.88785 13.0647C5.58734 13.8903 6.01305 14.8033 6.83869 15.1038L13.457 17.5127C14.2826 17.8132 15.1956 17.3875 15.4961 16.5618L15.6659 16.0952C15.7504 15.8631 15.7796 15.6146 15.7514 15.3692L15.3386 11.7825C15.3281 11.6913 15.339 11.599 15.3704 11.5128L16.8022 7.57879Z" fill="#7D95BD"/>
</svg>