<svg width="24" height="23" viewBox="0 0 24 23" fill="none" xmlns="http://www.w3.org/2000/svg">
    <path fill-rule="evenodd" clip-rule="evenodd" d="M4.00878 11.5575C4.02003 11.52 4.02003 11.48 4.00878 11.4425L1.01944 1.48047C0.935348 1.20025 1.13861 0.918891 1.35091 1.02165L22.6281 11.32C22.7786 11.3928 22.7786 11.6072 22.6281 11.68L1.35091 21.9784C1.13861 22.0811 0.935348 21.7998 1.01944 21.5195L4.00878 11.5575ZM1.31533 1.15311C1.18795 1.09145 1.066 1.26027 1.11645 1.4284L4.07492 11.2876C4.10031 11.3722 4.17817 11.4301 4.26649 11.4301H21.6761C21.8886 11.4301 21.9545 11.1426 21.7632 11.0501L1.31533 1.15311ZM21.7632 11.9499C21.9545 11.8574 21.8886 11.5699 21.6761 11.5699H4.26649C4.17817 11.5699 4.10031 11.6278 4.07492 11.7124L1.11645 21.5716C1.066 21.7397 1.18795 21.9085 1.31533 21.8469L21.7632 11.9499Z" fill="white" stroke="white"/>
</svg>