<svg width="20" height="20" viewBox="0 0 20 20" fill="none" xmlns="http://www.w3.org/2000/svg">
<path fill-rule="evenodd" clip-rule="evenodd" d="M10 0C4.47715 0 0 4.47715 0 10C0 15.5228 4.47715 20 10 20C15.5228 20 20 15.5228 20 10C20 4.47715 15.5228 0 10 0ZM1.05263 10C1.05263 5.0585 5.0585 1.05263 10 1.05263C14.9415 1.05263 18.9474 5.0585 18.9474 10C18.9474 14.9415 14.9415 18.9474 10 18.9474C5.0585 18.9474 1.05263 14.9415 1.05263 10Z" fill="#2E5599"/>
<path fill-rule="evenodd" clip-rule="evenodd" d="M10 1.05263C5.0585 1.05263 1.05263 5.0585 1.05263 10C1.05263 14.9415 5.0585 18.9474 10 18.9474C14.9415 18.9474 18.9474 14.9415 18.9474 10C18.9474 5.0585 14.9415 1.05263 10 1.05263ZM14.8883 7.45521C15.0997 7.25574 15.1094 6.92264 14.91 6.7112C14.7105 6.49976 14.3774 6.49006 14.166 6.68953L8.94706 11.613L5.93974 8.79366C5.72768 8.59486 5.39461 8.6056 5.1958 8.81766C4.997 9.02972 5.00774 9.36279 5.2198 9.5616L8.94932 13.058L14.8883 7.45521Z" fill="#2E5599"/>
</svg>
