<svg width="25" height="24" viewBox="0 0 25 24" fill="none" xmlns="http://www.w3.org/2000/svg">
    <rect width="24" height="24" transform="translate(0.25)" fill="white"/>
    <path fill-rule="evenodd" clip-rule="evenodd" d="M12.2751 3.10938C11.9969 3.10938 11.7243 3.1867 11.4876 3.33272L11.474 3.34142L2.97395 8.97142C2.82848 9.06777 2.74977 9.22711 2.75 9.38945V9.39063V19.3906C2.75 19.7885 2.90804 20.17 3.18934 20.4513C3.47065 20.7326 3.85218 20.8906 4.25 20.8906H20.25C20.6478 20.8906 21.0294 20.7326 21.3107 20.4513C21.592 20.17 21.75 19.7884 21.75 19.3906V9.39915C21.7534 9.23395 21.675 9.07058 21.5273 8.97217L13.0773 3.34217C13.0724 3.33894 13.0675 3.33579 13.0626 3.33272C12.8258 3.1867 12.5532 3.10938 12.2751 3.10938ZM20.3748 9.40594L12.5314 4.18006C12.4539 4.13382 12.3653 4.10938 12.2751 4.10938C12.1846 4.10938 12.0958 4.13393 12.0183 4.18035L4.12736 9.40692L10.8953 14.2879L11.963 13.5397C12.1359 13.4186 12.3664 13.4191 12.5387 13.5411L13.6048 14.2954L20.3748 9.40594ZM14.4675 14.9059L20.75 19.3514V10.3685L14.4675 14.9059ZM19.7808 19.8906L12.2485 14.5607L11.1885 15.3035C11.1819 15.3087 11.1751 15.3138 11.1681 15.3187L4.69121 19.8906H19.7808ZM3.75 10.3677L10.0308 14.8975L3.75 19.331V10.3677Z" fill="#2E5599"/>
</svg>