<svg width="25" height="24" viewBox="0 0 25 24" fill="none" xmlns="http://www.w3.org/2000/svg">
<path fill-rule="evenodd" clip-rule="evenodd" d="M11.9066 5.5C11.774 5.5 11.6468 5.55268 11.5531 5.64645L5.89621 11.3033C5.70095 11.4986 5.70095 11.8152 5.89622 12.0104C6.09148 12.2057 6.40806 12.2057 6.60332 12.0104L11.4066 7.20711L11.4066 18C11.4066 18.2761 11.6305 18.5 11.9066 18.5C12.1828 18.5 12.4066 18.2761 12.4066 18L12.4066 7.20711L17.2099 12.0104C17.4052 12.2057 17.7218 12.2057 17.917 12.0104C18.1123 11.8152 18.1123 11.4986 17.917 11.3033L12.2602 5.64645C12.1664 5.55268 12.0392 5.5 11.9066 5.5Z" fill="#2E5599"/>
</svg>