<svg width="19" height="21" viewBox="0 0 19 21" fill="none" xmlns="http://www.w3.org/2000/svg">
<path fill-rule="evenodd" clip-rule="evenodd" d="M8 0C3.58172 0 0 3.58172 0 8C0 12.4183 3.58172 16 8 16C9.75081 16 11.3703 15.4376 12.6875 14.4835C12.7037 14.507 12.7222 14.5294 12.7428 14.5505L18.1428 20.0505C18.3363 20.2475 18.6529 20.2504 18.8499 20.057C19.0469 19.8635 19.0499 19.5469 18.8564 19.3499L13.4567 13.8502C15.0216 12.39 16 10.3092 16 8C16 3.58172 12.4183 0 8 0ZM1 8C1 4.13401 4.13401 1 8 1C11.866 1 15 4.13401 15 8C15 11.866 11.866 15 8 15C4.13401 15 1 11.866 1 8Z" fill="#2E5599"/>
</svg>